<svg version="1.1" xmlns="http://www.w3.org/2000/svg" xmlns:xlink="http://www.w3.org/1999/xlink" width="748" height="607"><defs></defs><g><g transform="translate(-150,-110) scale(1,1)"><rect fill="#C0C0C0" stroke="none" x="327" y="319" width="96" height="117" opacity="0.2"></rect></g><g transform="translate(-150,-110) scale(1,1)"><rect fill="#ffffff" stroke="none" x="320" y="312" width="96" height="117"></rect></g><g transform="translate(-150,-110) scale(1,1)"><path fill="none" stroke="#000000" d="M 320 312 L 416 312 L 416 429 L 320 429 L 320 312 Z Z" stroke-miterlimit="10"></path></g><g transform="translate(-150,-110) scale(1,1)"><path fill="none" stroke="#000000" d="M 320 337 L 416 337" stroke-miterlimit="10"></path></g><g transform="translate(-150,-110) scale(1,1)"><path fill="none" stroke="#000000" d="M 320 420 L 416 420" stroke-miterlimit="10"></path></g><g transform="translate(-150,-110) scale(1,1)"><g><path fill="none" stroke="none"></path><text fill="#000000" stroke="none" font-family="Arial" font-size="13px" font-style="normal" font-weight="bold" text-decoration="none" x="342" y="331.5">Producto</text></g></g><g transform="translate(-150,-110) scale(1,1)"><g><path fill="none" stroke="none"></path><text fill="#000000" stroke="none" font-family="Arial" font-size="13px" font-style="normal" font-weight="normal" text-decoration="none" x="325" y="354.5">+id</text></g></g><g transform="translate(-150,-110) scale(1,1)"><g><path fill="none" stroke="none"></path><text fill="#000000" stroke="none" font-family="Arial" font-size="13px" font-style="normal" font-weight="normal" text-decoration="none" x="325" y="369.5">+nombre</text></g></g><g transform="translate(-150,-110) scale(1,1)"><g><path fill="none" stroke="none"></path><text fill="#000000" stroke="none" font-family="Arial" font-size="13px" font-style="normal" font-weight="normal" text-decoration="none" x="325" y="384.5">+descripcion</text></g></g><g transform="translate(-150,-110) scale(1,1)"><g><path fill="none" stroke="none"></path><text fill="#000000" stroke="none" font-family="Arial" font-size="13px" font-style="normal" font-weight="normal" text-decoration="none" x="325" y="399.5">+categoria_id</text></g></g><g transform="translate(-150,-110) scale(1,1)"><g><path fill="none" stroke="none"></path><text fill="#000000" stroke="none" font-family="Arial" font-size="13px" font-style="normal" font-weight="normal" text-decoration="none" x="325" y="414.5">+origen_id</text></g></g><g transform="translate(-150,-110) scale(1,1)"><rect fill="#C0C0C0" stroke="none" x="543" y="359" width="128" height="88" opacity="0.2"></rect></g><g transform="translate(-150,-110) scale(1,1)"><rect fill="#ffffff" stroke="none" x="536" y="352" width="128" height="88"></rect></g><g transform="translate(-150,-110) scale(1,1)"><path fill="none" stroke="#000000" d="M 536 352 L 664 352 L 664 440 L 536 440 L 536 352 Z Z" stroke-miterlimit="10"></path></g><g transform="translate(-150,-110) scale(1,1)"><path fill="none" stroke="#000000" d="M 536 377 L 664 377" stroke-miterlimit="10"></path></g><g transform="translate(-150,-110) scale(1,1)"><path fill="none" stroke="#000000" d="M 536 430 L 664 430" stroke-miterlimit="10"></path></g><g transform="translate(-150,-110) scale(1,1)"><g><path fill="none" stroke="none"></path><text fill="#000000" stroke="none" font-family="Arial" font-size="13px" font-style="normal" font-weight="bold" text-decoration="none" x="553.5" y="371.5">Establecimiento</text></g></g><g transform="translate(-150,-110) scale(1,1)"><g><path fill="none" stroke="none"></path><text fill="#000000" stroke="none" font-family="Arial" font-size="13px" font-style="normal" font-weight="normal" text-decoration="none" x="541" y="394.5">+id</text></g></g><g transform="translate(-150,-110) scale(1,1)"><g><path fill="none" stroke="none"></path><text fill="#000000" stroke="none" font-family="Arial" font-size="13px" font-style="normal" font-weight="normal" text-decoration="none" x="541" y="409.5">+nombre</text></g></g><g transform="translate(-150,-110) scale(1,1)"><g><path fill="none" stroke="none"></path><text fill="#000000" stroke="none" font-family="Arial" font-size="13px" font-style="normal" font-weight="normal" text-decoration="none" x="541" y="424.5">+direccion_id</text></g></g><g transform="translate(-150,-110) scale(1,1)"><rect fill="#C0C0C0" stroke="none" x="263" y="519" width="125" height="147" opacity="0.2"></rect></g><g transform="translate(-150,-110) scale(1,1)"><rect fill="#ffffff" stroke="none" x="256" y="512" width="125" height="147"></rect></g><g transform="translate(-150,-110) scale(1,1)"><path fill="none" stroke="#000000" d="M 256 512 L 381 512 L 381 659 L 256 659 L 256 512 Z Z" stroke-miterlimit="10"></path></g><g transform="translate(-150,-110) scale(1,1)"><path fill="none" stroke="#000000" d="M 256 537 L 381 537" stroke-miterlimit="10"></path></g><g transform="translate(-150,-110) scale(1,1)"><path fill="none" stroke="#000000" d="M 256 650 L 381 650" stroke-miterlimit="10"></path></g><g transform="translate(-150,-110) scale(1,1)"><g><path fill="none" stroke="none"></path><text fill="#000000" stroke="none" font-family="Arial" font-size="13px" font-style="normal" font-weight="bold" text-decoration="none" x="291.5" y="531.5">Inventario</text></g></g><g transform="translate(-150,-110) scale(1,1)"><g><path fill="none" stroke="none"></path><text fill="#000000" stroke="none" font-family="Arial" font-size="13px" font-style="normal" font-weight="normal" text-decoration="none" x="261" y="554.5">+id</text></g></g><g transform="translate(-150,-110) scale(1,1)"><g><path fill="none" stroke="none"></path><text fill="#000000" stroke="none" font-family="Arial" font-size="13px" font-style="normal" font-weight="normal" text-decoration="none" x="261" y="569.5">+producto_id</text></g></g><g transform="translate(-150,-110) scale(1,1)"><g><path fill="none" stroke="none"></path><text fill="#000000" stroke="none" font-family="Arial" font-size="13px" font-style="normal" font-weight="normal" text-decoration="none" x="261" y="584.5">+establecimiento_id</text></g></g><g transform="translate(-150,-110) scale(1,1)"><g><path fill="none" stroke="none"></path><text fill="#000000" stroke="none" font-family="Arial" font-size="13px" font-style="normal" font-weight="normal" text-decoration="none" x="261" y="599.5">+estado</text></g></g><g transform="translate(-150,-110) scale(1,1)"><g><path fill="none" stroke="none"></path><text fill="#000000" stroke="none" font-family="Arial" font-size="13px" font-style="normal" font-weight="normal" text-decoration="none" x="261" y="614.5">+precio_monto</text></g></g><g transform="translate(-150,-110) scale(1,1)"><g><path fill="none" stroke="none"></path><text fill="#000000" stroke="none" font-family="Arial" font-size="13px" font-style="normal" font-weight="normal" text-decoration="none" x="261" y="629.5">+precio_moneda</text></g></g><g transform="translate(-150,-110) scale(1,1)"><g><path fill="none" stroke="none"></path><text fill="#000000" stroke="none" font-family="Arial" font-size="13px" font-style="normal" font-weight="normal" text-decoration="none" x="261" y="644.5">+fecha_ingreso</text></g></g><g transform="translate(-150,-110) scale(1,1)"><path fill="none" stroke="#000000" d="M 354 430 L 335 511" stroke-miterlimit="10"></path></g><g transform="translate(-150,-110) scale(1,1)"><rect fill="#C0C0C0" stroke="none" x="679" y="567" width="125" height="147" opacity="0.2"></rect></g><g transform="translate(-150,-110) scale(1,1)"><rect fill="#ffffff" stroke="none" x="672" y="560" width="125" height="147"></rect></g><g transform="translate(-150,-110) scale(1,1)"><path fill="none" stroke="#000000" d="M 672 560 L 797 560 L 797 707 L 672 707 L 672 560 Z Z" stroke-miterlimit="10"></path></g><g transform="translate(-150,-110) scale(1,1)"><path fill="none" stroke="#000000" d="M 672 585 L 797 585" stroke-miterlimit="10"></path></g><g transform="translate(-150,-110) scale(1,1)"><path fill="none" stroke="#000000" d="M 672 698 L 797 698" stroke-miterlimit="10"></path></g><g transform="translate(-150,-110) scale(1,1)"><g><path fill="none" stroke="none"></path><text fill="#000000" stroke="none" font-family="Arial" font-size="13px" font-style="normal" font-weight="bold" text-decoration="none" x="717.5" y="579.5">Venta</text></g></g><g transform="translate(-150,-110) scale(1,1)"><g><path fill="none" stroke="none"></path><text fill="#000000" stroke="none" font-family="Arial" font-size="13px" font-style="normal" font-weight="normal" text-decoration="none" x="677" y="602.5">+id</text></g></g><g transform="translate(-150,-110) scale(1,1)"><g><path fill="none" stroke="none"></path><text fill="#000000" stroke="none" font-family="Arial" font-size="13px" font-style="normal" font-weight="normal" text-decoration="none" x="677" y="617.5">+establecimiento_id</text></g></g><g transform="translate(-150,-110) scale(1,1)"><g><path fill="none" stroke="none"></path><text fill="#000000" stroke="none" font-family="Arial" font-size="13px" font-style="normal" font-weight="normal" text-decoration="none" x="677" y="632.5">+cliente_id</text></g></g><g transform="translate(-150,-110) scale(1,1)"><g><path fill="none" stroke="none"></path><text fill="#000000" stroke="none" font-family="Arial" font-size="13px" font-style="normal" font-weight="normal" text-decoration="none" x="677" y="647.5">+fecha_venta</text></g></g><g transform="translate(-150,-110) scale(1,1)"><g><path fill="none" stroke="none"></path><text fill="#000000" stroke="none" font-family="Arial" font-size="13px" font-style="normal" font-weight="normal" text-decoration="none" x="677" y="662.5">+estado</text></g></g><g transform="translate(-150,-110) scale(1,1)"><g><path fill="none" stroke="none"></path><text fill="#000000" stroke="none" font-family="Arial" font-size="13px" font-style="normal" font-weight="normal" text-decoration="none" x="677" y="677.5">+pago_monto</text></g></g><g transform="translate(-150,-110) scale(1,1)"><g><path fill="none" stroke="none"></path><text fill="#000000" stroke="none" font-family="Arial" font-size="13px" font-style="normal" font-weight="normal" text-decoration="none" x="677" y="692.5">+pago_moneda</text></g></g><g transform="translate(-150,-110) scale(1,1)"><rect fill="#C0C0C0" stroke="none" x="167" y="255" width="86" height="102" opacity="0.2"></rect></g><g transform="translate(-150,-110) scale(1,1)"><rect fill="#ffffff" stroke="none" x="160" y="248" width="86" height="102"></rect></g><g transform="translate(-150,-110) scale(1,1)"><path fill="none" stroke="#000000" d="M 160 248 L 246 248 L 246 350 L 160 350 L 160 248 Z Z" stroke-miterlimit="10"></path></g><g transform="translate(-150,-110) scale(1,1)"><path fill="none" stroke="#000000" d="M 160 273 L 246 273" stroke-miterlimit="10"></path></g><g transform="translate(-150,-110) scale(1,1)"><path fill="none" stroke="#000000" d="M 160 341 L 246 341" stroke-miterlimit="10"></path></g><g transform="translate(-150,-110) scale(1,1)"><g><path fill="none" stroke="none"></path><text fill="#000000" stroke="none" font-family="Arial" font-size="13px" font-style="normal" font-weight="bold" text-decoration="none" x="175.5" y="267.5">Categoria</text></g></g><g transform="translate(-150,-110) scale(1,1)"><g><path fill="none" stroke="none"></path><text fill="#000000" stroke="none" font-family="Arial" font-size="13px" font-style="normal" font-weight="normal" text-decoration="none" x="165" y="290.5">+id</text></g></g><g transform="translate(-150,-110) scale(1,1)"><g><path fill="none" stroke="none"></path><text fill="#000000" stroke="none" font-family="Arial" font-size="13px" font-style="normal" font-weight="normal" text-decoration="none" x="165" y="305.5">+nombre</text></g></g><g transform="translate(-150,-110) scale(1,1)"><g><path fill="none" stroke="none"></path><text fill="#000000" stroke="none" font-family="Arial" font-size="13px" font-style="normal" font-weight="normal" text-decoration="none" x="165" y="320.5">+descripcion</text></g></g><g transform="translate(-150,-110) scale(1,1)"><g><path fill="none" stroke="none"></path><text fill="#000000" stroke="none" font-family="Arial" font-size="13px" font-style="normal" font-weight="normal" text-decoration="none" x="165" y="335.5">+padre</text></g></g><g transform="translate(-150,-110) scale(1,1)"><path fill="none" stroke="#000000" d="M 319 349 L 247 318" stroke-miterlimit="10"></path></g><g transform="translate(-150,-110) scale(1,1)"><path fill="none" stroke="#000000" d="M 671 636 L 592 640" stroke-miterlimit="10"></path></g><g transform="translate(-150,-110) scale(1,1)"><path fill="none" stroke="#000000" d="M 382 542 L 535 440" stroke-miterlimit="10"></path></g><g transform="translate(-150,-110) scale(1,1)"><path fill="none" stroke="#000000" d="M 692 559 L 625 441" stroke-miterlimit="10"></path></g><g transform="translate(-150,-110) scale(1,1)"><rect fill="#C0C0C0" stroke="none" x="783" y="359" width="112" height="132" opacity="0.2"></rect></g><g transform="translate(-150,-110) scale(1,1)"><rect fill="#ffffff" stroke="none" x="776" y="352" width="112" height="132"></rect></g><g transform="translate(-150,-110) scale(1,1)"><path fill="none" stroke="#000000" d="M 776 352 L 888 352 L 888 484 L 776 484 L 776 352 Z Z" stroke-miterlimit="10"></path></g><g transform="translate(-150,-110) scale(1,1)"><path fill="none" stroke="#000000" d="M 776 377 L 888 377" stroke-miterlimit="10"></path></g><g transform="translate(-150,-110) scale(1,1)"><path fill="none" stroke="#000000" d="M 776 475 L 888 475" stroke-miterlimit="10"></path></g><g transform="translate(-150,-110) scale(1,1)"><g><path fill="none" stroke="none"></path><text fill="#000000" stroke="none" font-family="Arial" font-size="13px" font-style="normal" font-weight="bold" text-decoration="none" x="812" y="371.5">Cliente</text></g></g><g transform="translate(-150,-110) scale(1,1)"><g><path fill="none" stroke="none"></path><text fill="#000000" stroke="none" font-family="Arial" font-size="13px" font-style="normal" font-weight="normal" text-decoration="none" x="781" y="394.5">+id</text></g></g><g transform="translate(-150,-110) scale(1,1)"><g><path fill="none" stroke="none"></path><text fill="#000000" stroke="none" font-family="Arial" font-size="13px" font-style="normal" font-weight="normal" text-decoration="none" x="781" y="409.5">+nombre</text></g></g><g transform="translate(-150,-110) scale(1,1)"><g><path fill="none" stroke="none"></path><text fill="#000000" stroke="none" font-family="Arial" font-size="13px" font-style="normal" font-weight="normal" text-decoration="none" x="781" y="424.5">+apellido</text></g></g><g transform="translate(-150,-110) scale(1,1)"><g><path fill="none" stroke="none"></path><text fill="#000000" stroke="none" font-family="Arial" font-size="13px" font-style="normal" font-weight="normal" text-decoration="none" x="781" y="439.5">+email</text></g></g><g transform="translate(-150,-110) scale(1,1)"><g><path fill="none" stroke="none"></path><text fill="#000000" stroke="none" font-family="Arial" font-size="13px" font-style="normal" font-weight="normal" text-decoration="none" x="781" y="454.5">+fecha_registro</text></g></g><g transform="translate(-150,-110) scale(1,1)"><g><path fill="none" stroke="none"></path><text fill="#000000" stroke="none" font-family="Arial" font-size="13px" font-style="normal" font-weight="normal" text-decoration="none" x="781" y="469.5">+estado</text></g></g><g transform="translate(-150,-110) scale(1,1)"><path fill="none" stroke="#000000" d="M 768 559 L 801 485" stroke-miterlimit="10"></path></g><g transform="translate(-150,-110) scale(1,1)"><rect fill="#C0C0C0" stroke="none" x="487" y="127" width="96" height="162" opacity="0.2"></rect></g><g transform="translate(-150,-110) scale(1,1)"><rect fill="#ffffff" stroke="none" x="480" y="120" width="96" height="162"></rect></g><g transform="translate(-150,-110) scale(1,1)"><path fill="none" stroke="#000000" d="M 480 120 L 576 120 L 576 282 L 480 282 L 480 120 Z Z" stroke-miterlimit="10"></path></g><g transform="translate(-150,-110) scale(1,1)"><path fill="none" stroke="#000000" d="M 480 145 L 576 145" stroke-miterlimit="10"></path></g><g transform="translate(-150,-110) scale(1,1)"><path fill="none" stroke="#000000" d="M 480 273 L 576 273" stroke-miterlimit="10"></path></g><g transform="translate(-150,-110) scale(1,1)"><g><path fill="none" stroke="none"></path><text fill="#000000" stroke="none" font-family="Arial" font-size="13px" font-style="normal" font-weight="bold" text-decoration="none" x="501" y="139.5">Direccion</text></g></g><g transform="translate(-150,-110) scale(1,1)"><g><path fill="none" stroke="none"></path><text fill="#000000" stroke="none" font-family="Arial" font-size="13px" font-style="normal" font-weight="normal" text-decoration="none" x="485" y="162.5">+id</text></g></g><g transform="translate(-150,-110) scale(1,1)"><g><path fill="none" stroke="none"></path><text fill="#000000" stroke="none" font-family="Arial" font-size="13px" font-style="normal" font-weight="normal" text-decoration="none" x="485" y="177.5">+pais</text></g></g><g transform="translate(-150,-110) scale(1,1)"><g><path fill="none" stroke="none"></path><text fill="#000000" stroke="none" font-family="Arial" font-size="13px" font-style="normal" font-weight="normal" text-decoration="none" x="485" y="192.5">+region</text></g></g><g transform="translate(-150,-110) scale(1,1)"><g><path fill="none" stroke="none"></path><text fill="#000000" stroke="none" font-family="Arial" font-size="13px" font-style="normal" font-weight="normal" text-decoration="none" x="485" y="207.5">+ciudad</text></g></g><g transform="translate(-150,-110) scale(1,1)"><g><path fill="none" stroke="none"></path><text fill="#000000" stroke="none" font-family="Arial" font-size="13px" font-style="normal" font-weight="normal" text-decoration="none" x="485" y="222.5">+descripcion</text></g></g><g transform="translate(-150,-110) scale(1,1)"><g><path fill="none" stroke="none"></path><text fill="#000000" stroke="none" font-family="Arial" font-size="13px" font-style="normal" font-weight="normal" text-decoration="none" x="485" y="237.5">+zipcode</text></g></g><g transform="translate(-150,-110) scale(1,1)"><g><path fill="none" stroke="none"></path><text fill="#000000" stroke="none" font-family="Arial" font-size="13px" font-style="normal" font-weight="normal" text-decoration="none" x="485" y="252.5">+geo_lat</text></g></g><g transform="translate(-150,-110) scale(1,1)"><g><path fill="none" stroke="none"></path><text fill="#000000" stroke="none" font-family="Arial" font-size="13px" font-style="normal" font-weight="normal" text-decoration="none" x="485" y="267.5">+geo_lon</text></g></g><g transform="translate(-150,-110) scale(1,1)"><path fill="none" stroke="#000000" d="M 417 318 L 479 253" stroke-miterlimit="10"></path></g><g transform="translate(-150,-110) scale(1,1)"><path fill="none" stroke="#000000" d="M 558 283 L 583 351" stroke-miterlimit="10"></path></g><g transform="translate(-150,-110) scale(1,1)"><rect fill="#C0C0C0" stroke="none" x="471" y="599" width="127" height="102" opacity="0.2"></rect></g><g transform="translate(-150,-110) scale(1,1)"><rect fill="#ffffff" stroke="none" x="464" y="592" width="127" height="102"></rect></g><g transform="translate(-150,-110) scale(1,1)"><path fill="none" stroke="#000000" d="M 464 592 L 591 592 L 591 694 L 464 694 L 464 592 Z Z" stroke-miterlimit="10"></path></g><g transform="translate(-150,-110) scale(1,1)"><path fill="none" stroke="#000000" d="M 464 617 L 591 617" stroke-miterlimit="10"></path></g><g transform="translate(-150,-110) scale(1,1)"><path fill="none" stroke="#000000" d="M 464 685 L 591 685" stroke-miterlimit="10"></path></g><g transform="translate(-150,-110) scale(1,1)"><g><path fill="none" stroke="none"></path><text fill="#000000" stroke="none" font-family="Arial" font-size="13px" font-style="normal" font-weight="bold" text-decoration="none" x="500" y="611.5">ItenVenta</text></g></g><g transform="translate(-150,-110) scale(1,1)"><g><path fill="none" stroke="none"></path><text fill="#000000" stroke="none" font-family="Arial" font-size="13px" font-style="normal" font-weight="normal" text-decoration="none" x="469" y="634.5">+venta_id</text></g></g><g transform="translate(-150,-110) scale(1,1)"><g><path fill="none" stroke="none"></path><text fill="#000000" stroke="none" font-family="Arial" font-size="13px" font-style="normal" font-weight="normal" text-decoration="none" x="469" y="649.5">+inventario_id</text></g></g><g transform="translate(-150,-110) scale(1,1)"><g><path fill="none" stroke="none"></path><text fill="#000000" stroke="none" font-family="Arial" font-size="13px" font-style="normal" font-weight="normal" text-decoration="none" x="469" y="664.5">+precio_monto</text></g></g><g transform="translate(-150,-110) scale(1,1)"><g><path fill="none" stroke="none"></path><text fill="#000000" stroke="none" font-family="Arial" font-size="13px" font-style="normal" font-weight="normal" text-decoration="none" x="469" y="679.5">+precio_moneda</text></g></g><g transform="translate(-150,-110) scale(1,1)"><path fill="none" stroke="#000000" d="M 382 603 L 463 625" stroke-miterlimit="10"></path></g></g></svg>